{"glyphs":{"0":{"ha":814,"x_min":68,"x_max":746,"o":"m 407 1153 q 339 1085 339 1153 l 339 271 q 407 203 339 203 q 475 271 475 203 l 475 1085 q 407 1153 475 1153 m 339 -68 q 68 203 68 -68 l 68 1153 q 339 1424 68 1424 l 475 1424 q 746 1153 746 1424 l 746 203 q 475 -68 746 -68 l 339 -68 z "},"1":{"ha":407,"x_min":68,"x_max":339,"o":"m 339 -68 l 68 -68 l 68 1424 l 339 1424 l 339 -68 z "},"2":{"ha":814,"x_min":68,"x_max":746,"o":"m 475 1424 q 746 1153 746 1424 l 746 814 q 475 543 746 543 l 407 543 q 339 475 339 543 l 339 203 l 678 203 l 678 -68 l 68 -68 l 68 543 q 339 814 68 814 l 407 814 q 475 882 475 814 l 475 1085 q 407 1153 475 1153 l 136 1153 l 136 1424 l 475 1424 z "},"3":{"ha":814,"x_min":68,"x_max":746,"o":"m 203 543 l 203 814 l 407 814 q 475 882 475 814 l 475 1085 q 407 1153 475 1153 l 68 1153 l 68 1424 l 475 1424 q 746 1153 746 1424 l 746 882 q 610 678 746 734 q 746 475 746 622 l 746 203 q 475 -68 746 -68 l 68 -68 l 68 203 l 407 203 q 475 271 475 203 l 475 475 q 407 543 475 543 l 203 543 z "},"4":{"ha":814,"x_min":68,"x_max":746,"o":"m 68 543 l 68 1424 l 339 1424 l 339 814 l 475 814 l 475 1424 l 746 1424 l 746 -68 l 475 -68 l 475 543 l 68 543 z "},"5":{"ha":814,"x_min":68,"x_max":746,"o":"m 678 1424 l 678 1153 l 339 1153 l 339 814 l 475 814 q 746 543 746 814 l 746 203 q 475 -68 746 -68 l 136 -68 l 136 203 l 407 203 q 475 271 475 203 l 475 475 q 407 543 475 543 l 68 543 l 68 1424 l 678 1424 z "},"6":{"ha":814,"x_min":68,"x_max":746,"o":"m 475 271 l 475 746 q 407 814 475 814 q 339 746 339 814 l 339 271 q 407 203 339 203 q 475 271 475 203 m 339 1085 l 475 1085 q 746 814 746 1085 l 746 203 q 475 -68 746 -68 l 339 -68 q 68 203 68 -68 l 68 1153 q 339 1424 68 1424 l 610 1424 l 610 1153 l 407 1153 q 339 1085 339 1153 z "},"7":{"ha":814,"x_min":68,"x_max":746,"o":"m 746 1424 l 339 -68 l 68 -68 l 401 1153 l 68 1153 l 68 1424 l 746 1424 z "},"8":{"ha":814,"x_min":68,"x_max":746,"o":"m 407 543 q 339 475 339 543 l 339 271 q 407 203 339 203 q 475 271 475 203 l 475 475 q 407 543 475 543 m 475 1424 q 746 1153 746 1424 l 746 882 q 610 678 746 734 q 746 475 746 622 l 746 203 q 475 -68 746 -68 l 339 -68 q 68 203 68 -68 l 68 475 q 203 678 68 622 q 68 882 68 734 l 68 1153 q 339 1424 68 1424 l 475 1424 m 407 814 q 475 882 475 814 l 475 1085 q 407 1153 475 1153 q 339 1085 339 1153 l 339 882 q 407 814 339 814 z "},"9":{"ha":814,"x_min":68,"x_max":746,"o":"m 339 1085 l 339 610 q 407 543 339 543 q 475 610 475 543 l 475 1085 q 407 1153 475 1153 q 339 1085 339 1153 m 475 271 l 339 271 q 68 543 68 271 l 68 1153 q 339 1424 68 1424 l 475 1424 q 746 1153 746 1424 l 746 203 q 475 -68 746 -68 l 203 -68 l 203 203 l 407 203 q 475 271 475 203 z "},"\u0000":{"ha":0,"x_min":0,"x_max":0,"o":""},"\u001d":{"ha":0,"x_min":0,"x_max":0,"o":""}," ":{"ha":345,"x_min":0,"x_max":0,"o":""}," ":{"ha":345,"x_min":0,"x_max":0,"o":""},"!":{"ha":407,"x_min":31,"x_max":370,"o":"m 339 339 l 68 339 l 68 1424 l 339 1424 l 339 339 m 201 271 q 321 222 271 271 q 370 102 370 172 q 321 -18 370 31 q 201 -68 271 -68 q 81 -18 130 -68 q 31 102 31 31 q 81 222 31 172 q 201 271 130 271 z "},"\"":{"ha":746,"x_min":68,"x_max":678,"o":"m 339 1356 l 339 949 l 68 949 l 68 1356 l 339 1356 m 678 1356 l 678 949 l 407 949 l 407 1356 l 678 1356 z "},"#":{"ha":1127,"x_min":68,"x_max":1063,"o":"m 454 543 l 590 543 l 648 814 l 512 814 l 454 543 m 411 271 l 339 -68 l 68 -68 l 140 271 l 72 271 l 130 543 l 197 543 l 255 814 l 187 814 l 245 1085 l 313 1085 l 385 1424 l 656 1424 l 584 1085 l 720 1085 l 791 1424 l 1063 1424 l 991 1085 l 1059 1085 l 1001 814 l 933 814 l 876 543 l 943 543 l 886 271 l 818 271 l 746 -68 l 475 -68 l 547 271 l 411 271 z "},"$":{"ha":814,"x_min":68,"x_max":746,"o":"m 339 1424 l 339 1560 l 475 1560 l 475 1424 l 678 1424 l 678 1153 l 407 1153 q 339 1085 339 1153 l 339 882 q 407 814 339 814 l 475 814 q 746 543 746 814 l 746 203 q 475 -68 746 -68 l 475 -203 l 339 -203 l 339 -68 l 136 -68 l 136 203 l 407 203 q 475 271 475 203 l 475 475 q 407 543 475 543 l 339 543 q 68 814 68 543 l 68 1153 q 339 1424 68 1424 z "},"%":{"ha":1017,"x_min":68,"x_max":949,"o":"m 475 -68 l 203 -68 l 543 1424 l 814 1424 l 475 -68 m 780 543 q 900 493 850 543 q 949 373 949 444 q 900 253 949 302 q 780 203 850 203 q 660 253 709 203 q 610 373 610 302 q 660 493 610 444 q 780 543 709 543 m 237 1153 q 357 1103 308 1153 q 407 983 407 1054 q 357 863 407 913 q 237 814 308 814 q 117 863 167 814 q 68 983 68 913 q 117 1103 68 1054 q 237 1153 167 1153 z "},"&":{"ha":814,"x_min":68,"x_max":814,"o":"m 407 543 q 339 475 339 543 l 339 271 q 407 203 339 203 q 475 271 475 203 l 475 475 q 407 543 475 543 m 407 814 q 475 882 475 814 l 475 1085 q 407 1153 475 1153 q 339 1085 339 1153 l 339 882 q 407 814 339 814 m 738 814 l 814 814 l 814 543 l 738 543 q 746 475 746 511 l 746 -136 l 475 -136 l 475 -68 l 339 -68 q 68 203 68 -68 l 68 475 q 203 678 68 622 q 68 882 68 734 l 68 1153 q 339 1424 68 1424 l 475 1424 q 746 1153 746 1424 l 746 882 q 738 814 746 845 z "},"'":{"ha":407,"x_min":68,"x_max":339,"o":"m 339 1356 l 339 949 l 68 949 l 68 1356 l 339 1356 z "},"(":{"ha":678,"x_min":68,"x_max":610,"o":"m 610 1424 l 610 1153 l 407 1153 q 339 1085 339 1153 l 339 271 q 407 203 339 203 l 610 203 l 610 -68 l 339 -68 q 68 203 68 -68 l 68 1153 q 339 1424 68 1424 l 610 1424 z "},")":{"ha":678,"x_min":68,"x_max":610,"o":"m 68 1424 l 339 1424 q 610 1153 610 1424 l 610 203 q 339 -68 610 -68 l 68 -68 l 68 203 l 271 203 q 339 271 339 203 l 339 1085 q 271 1153 339 1153 l 68 1153 l 68 1424 z "},"*":{"ha":671,"x_min":68,"x_max":603,"o":"m 267 1205 l 267 1356 l 403 1356 l 403 1205 l 533 1283 l 603 1166 l 467 1085 l 603 1004 l 533 887 l 403 965 l 403 814 l 267 814 l 267 965 l 138 887 l 68 1004 l 203 1085 l 68 1166 l 138 1283 l 267 1205 z "},"+":{"ha":814,"x_min":68,"x_max":746,"o":"m 543 814 l 746 814 l 746 543 l 543 543 l 543 339 l 271 339 l 271 543 l 68 543 l 68 814 l 271 814 l 271 1017 l 543 1017 l 543 814 z "},",":{"ha":576,"x_min":68,"x_max":509,"o":"m 509 203 l 339 -271 l 68 -271 l 170 203 l 509 203 z "},"-":{"ha":814,"x_min":68,"x_max":746,"o":"m 746 814 l 746 543 l 68 543 l 68 814 l 746 814 z "},"­":{"ha":814,"x_min":68,"x_max":746,"o":"m 746 814 l 746 543 l 68 543 l 68 814 l 746 814 z "},".":{"ha":475,"x_min":68,"x_max":407,"o":"m 237 271 q 357 222 308 271 q 407 102 407 172 q 357 -18 407 31 q 237 -68 308 -68 q 117 -18 167 -68 q 68 102 68 31 q 117 222 68 172 q 237 271 167 271 z "},"/":{"ha":746,"x_min":68,"x_max":678,"o":"m 339 -68 l 68 -68 l 407 1424 l 678 1424 l 339 -68 z "},":":{"ha":475,"x_min":68,"x_max":407,"o":"m 237 271 q 357 222 308 271 q 407 102 407 172 q 357 -18 407 31 q 237 -68 308 -68 q 117 -18 167 -68 q 68 102 68 31 q 117 222 68 172 q 237 271 167 271 m 237 678 q 357 629 308 678 q 407 509 407 579 q 357 389 407 438 q 237 339 308 339 q 117 389 167 339 q 68 509 68 438 q 117 629 68 579 q 237 678 167 678 z "},";":{"ha":610,"x_min":68,"x_max":543,"o":"m 543 271 l 339 -136 l 68 -136 l 203 271 l 543 271 m 373 678 q 493 629 444 678 q 543 509 543 579 q 493 389 543 438 q 373 339 444 339 q 253 389 302 339 q 203 509 203 438 q 253 629 203 579 q 373 678 302 678 z "},";":{"ha":610,"x_min":68,"x_max":543,"o":"m 543 271 l 339 -136 l 68 -136 l 203 271 l 543 271 m 373 678 q 493 629 444 678 q 543 509 543 579 q 493 389 543 438 q 373 339 444 339 q 253 389 302 339 q 203 509 203 438 q 253 629 203 579 q 373 678 302 678 z "},"<":{"ha":814,"x_min":68,"x_max":746,"o":"m 68 543 l 746 1017 l 746 746 l 475 543 l 746 339 l 746 68 l 68 543 z "},"=":{"ha":814,"x_min":68,"x_max":746,"o":"m 746 949 l 746 678 l 68 678 l 68 949 l 746 949 m 746 543 l 746 271 l 68 271 l 68 543 l 746 543 z "},">":{"ha":814,"x_min":68,"x_max":746,"o":"m 746 543 l 68 68 l 68 339 l 339 543 l 68 746 l 68 1017 l 746 543 z "},"?":{"ha":814,"x_min":68,"x_max":746,"o":"m 407 814 q 475 882 475 814 l 475 1085 q 407 1153 475 1153 q 339 1085 339 1153 l 339 1017 l 68 1017 l 68 1153 q 339 1424 68 1424 l 475 1424 q 746 1153 746 1424 l 746 814 q 543 547 746 579 l 543 339 l 271 339 l 271 814 l 407 814 m 525 222 q 550 197 525 222 q 574 102 574 172 q 525 -18 574 31 q 405 -68 475 -68 q 285 -18 334 -68 q 235 102 235 31 q 285 222 235 172 q 405 271 334 271 q 525 222 475 271 z "},"@":{"ha":1502,"x_min":68,"x_max":1434,"o":"m 766 374 q 571 309 689 309 q 409 373 461 309 q 372 484 372 418 q 379 547 372 513 q 561 855 416 721 q 877 989 707 989 q 1116 915 964 989 q 988 632 1007 687 q 962 540 970 577 q 958 516 958 526 q 971 497 958 497 q 1108 587 1042 497 q 1200 802 1174 676 q 1217 910 1217 861 q 1167 1044 1217 994 q 945 1124 1087 1124 q 537 954 719 1124 q 300 527 355 785 q 289 425 289 473 q 339 256 289 326 q 568 155 414 155 q 735 183 649 155 q 897 280 822 211 l 987 121 q 751 3 882 43 q 509 -38 621 -38 q 151 114 269 -38 q 68 370 68 220 q 83 508 68 435 q 416 1085 157 854 q 1004 1317 676 1317 q 1354 1186 1240 1317 q 1434 956 1434 1094 q 1420 829 1434 897 q 1237 474 1377 630 q 921 319 1096 319 q 766 374 802 319 m 836 821 q 698 737 768 821 q 607 556 628 654 q 604 530 604 542 q 637 493 604 493 q 724 532 682 493 q 793 637 766 570 q 863 812 821 705 q 836 821 856 821 z "},"A":{"ha":678,"x_min":0,"x_max":678,"o":"m 0 -68 l 203 1424 l 475 1424 l 678 -68 l 407 -68 l 339 543 l 271 -68 l 0 -68 z "},"B":{"ha":814,"x_min":68,"x_max":746,"o":"m 407 543 l 339 543 l 339 203 l 407 203 q 475 271 475 203 l 475 475 q 407 543 475 543 m 407 814 q 475 882 475 814 l 475 1085 q 407 1153 475 1153 l 339 1153 l 339 814 l 407 814 m 475 1424 q 746 1153 746 1424 l 746 882 q 610 678 746 734 q 746 475 746 622 l 746 203 q 475 -68 746 -68 l 68 -68 l 68 1424 l 475 1424 z "},"C":{"ha":678,"x_min":68,"x_max":610,"o":"m 610 1424 l 610 1153 l 407 1153 q 339 1085 339 1153 l 339 271 q 407 203 339 203 l 610 203 l 610 -68 l 339 -68 q 68 203 68 -68 l 68 1153 q 339 1424 68 1424 l 610 1424 z "},"D":{"ha":814,"x_min":68,"x_max":746,"o":"m 339 1153 l 339 203 l 407 203 q 475 271 475 203 l 475 1085 q 407 1153 475 1153 l 339 1153 m 68 -68 l 68 1424 l 475 1424 q 746 1153 746 1424 l 746 203 q 475 -68 746 -68 l 68 -68 z "},"E":{"ha":678,"x_min":68,"x_max":610,"o":"m 610 1424 l 610 1153 l 339 1153 l 339 814 l 610 814 l 610 543 l 339 543 l 339 203 l 610 203 l 610 -68 l 68 -68 l 68 1424 l 610 1424 z "},"F":{"ha":678,"x_min":68,"x_max":610,"o":"m 610 1424 l 610 1153 l 339 1153 l 339 814 l 610 814 l 610 543 l 339 543 l 339 -68 l 68 -68 l 68 1424 l 610 1424 z "},"G":{"ha":814,"x_min":68,"x_max":746,"o":"m 475 814 l 746 814 l 746 -68 l 339 -68 q 68 203 68 -68 l 68 1153 q 339 1424 68 1424 l 746 1424 l 746 1153 l 407 1153 q 339 1085 339 1153 l 339 271 q 407 203 339 203 l 475 203 l 475 814 z "},"H":{"ha":814,"x_min":68,"x_max":746,"o":"m 339 543 l 339 -68 l 68 -68 l 68 1424 l 339 1424 l 339 814 l 475 814 l 475 1424 l 746 1424 l 746 -68 l 475 -68 l 475 543 l 339 543 z "},"I":{"ha":407,"x_min":68,"x_max":339,"o":"m 339 -68 l 68 -68 l 68 1424 l 339 1424 l 339 -68 z "},"J":{"ha":678,"x_min":68,"x_max":610,"o":"m 271 203 q 339 271 339 203 l 339 1424 l 610 1424 l 610 203 q 339 -68 610 -68 l 68 -68 l 68 203 l 271 203 z "},"K":{"ha":814,"x_min":68,"x_max":746,"o":"m 68 1424 l 339 1424 l 339 949 l 475 1424 l 746 1424 l 543 678 l 746 -68 l 475 -68 l 339 407 l 339 -68 l 68 -68 l 68 1424 z "},"L":{"ha":678,"x_min":68,"x_max":610,"o":"m 68 -68 l 68 1424 l 339 1424 l 339 203 l 610 203 l 610 -68 l 68 -68 z "},"M":{"ha":1153,"x_min":68,"x_max":1085,"o":"m 475 -68 l 339 543 l 339 -68 l 68 -68 l 68 1424 l 339 1424 l 576 319 l 814 1424 l 1085 1424 l 1085 -68 l 814 -68 l 814 543 l 678 -68 l 475 -68 z "},"N":{"ha":814,"x_min":68,"x_max":746,"o":"m 339 543 l 339 -68 l 68 -68 l 68 1424 l 271 1424 l 475 746 l 475 1424 l 746 1424 l 746 -68 l 543 -68 l 339 543 z "},"O":{"ha":814,"x_min":68,"x_max":746,"o":"m 407 1153 q 339 1085 339 1153 l 339 271 q 407 203 339 203 q 475 271 475 203 l 475 1085 q 407 1153 475 1153 m 339 -68 q 68 203 68 -68 l 68 1153 q 339 1424 68 1424 l 475 1424 q 746 1153 746 1424 l 746 203 q 475 -68 746 -68 l 339 -68 z "},"P":{"ha":814,"x_min":68,"x_max":746,"o":"m 339 1153 l 339 543 l 407 543 q 475 610 475 543 l 475 1085 q 407 1153 475 1153 l 339 1153 m 339 271 l 339 -68 l 68 -68 l 68 1424 l 475 1424 q 746 1153 746 1424 l 746 543 q 475 271 746 271 l 339 271 z "},"Q":{"ha":814,"x_min":68,"x_max":746,"o":"m 339 1085 l 339 271 q 407 203 339 203 q 475 271 475 203 l 475 1085 q 407 1153 475 1153 q 339 1085 339 1153 m 420 -68 l 339 -68 q 68 203 68 -68 l 68 1153 q 339 1424 68 1424 l 475 1424 q 746 1153 746 1424 l 746 203 q 664 -13 746 54 l 746 -203 l 475 -203 l 420 -68 z "},"R":{"ha":814,"x_min":68,"x_max":746,"o":"m 339 1153 l 339 543 l 407 543 q 475 610 475 543 l 475 1085 q 407 1153 475 1153 l 339 1153 m 339 271 l 339 -68 l 68 -68 l 68 1424 l 475 1424 q 746 1153 746 1424 l 746 543 q 593 288 746 339 l 746 -68 l 475 -68 l 339 271 z "},"S":{"ha":814,"x_min":68,"x_max":746,"o":"m 339 1424 l 678 1424 l 678 1153 l 407 1153 q 339 1085 339 1153 l 339 882 q 407 814 339 814 l 475 814 q 746 543 746 814 l 746 203 q 475 -68 746 -68 l 136 -68 l 136 203 l 407 203 q 475 271 475 203 l 475 475 q 407 543 475 543 l 339 543 q 68 814 68 543 l 68 1153 q 339 1424 68 1424 z "},"T":{"ha":814,"x_min":68,"x_max":746,"o":"m 746 1424 l 746 1153 l 543 1153 l 543 -68 l 271 -68 l 271 1153 l 68 1153 l 68 1424 l 746 1424 z "},"U":{"ha":814,"x_min":68,"x_max":746,"o":"m 475 1424 l 746 1424 l 746 203 q 475 -68 746 -68 l 339 -68 q 68 203 68 -68 l 68 1424 l 339 1424 l 339 271 q 407 203 339 203 q 475 271 475 203 l 475 1424 z "},"V":{"ha":678,"x_min":0,"x_max":678,"o":"m 0 1424 l 271 1424 l 339 746 l 407 1424 l 678 1424 l 475 -68 l 203 -68 l 0 1424 z "},"W":{"ha":1153,"x_min":0,"x_max":1153,"o":"m 576 543 l 475 -68 l 203 -68 l 0 1424 l 271 1424 l 339 746 l 475 1424 l 678 1424 l 814 746 l 882 1424 l 1153 1424 l 949 -68 l 678 -68 l 576 543 z "},"X":{"ha":678,"x_min":0,"x_max":678,"o":"m 203 678 l 0 1424 l 271 1424 l 339 1175 l 407 1424 l 678 1424 l 475 678 l 678 -68 l 407 -68 l 339 181 l 271 -68 l 0 -68 l 203 678 z "},"Y":{"ha":678,"x_min":0,"x_max":678,"o":"m 203 678 l 0 1424 l 271 1424 l 339 1175 l 407 1424 l 678 1424 l 475 678 l 475 -68 l 203 -68 l 203 678 z "},"Z":{"ha":814,"x_min":68,"x_max":746,"o":"m 746 1424 l 413 203 l 746 203 l 746 -68 l 68 -68 l 401 1153 l 68 1153 l 68 1424 l 746 1424 z "},"[":{"ha":678,"x_min":68,"x_max":610,"o":"m 610 1424 l 610 1153 l 339 1153 l 339 203 l 610 203 l 610 -68 l 68 -68 l 68 1424 l 610 1424 z "},"\\":{"ha":746,"x_min":68,"x_max":678,"o":"m 407 -68 l 68 1424 l 339 1424 l 678 -68 l 407 -68 z "},"]":{"ha":678,"x_min":68,"x_max":610,"o":"m 68 1424 l 610 1424 l 610 -68 l 68 -68 l 68 203 l 339 203 l 339 1153 l 68 1153 l 68 1424 z "},"^":{"ha":814,"x_min":68,"x_max":746,"o":"m 746 949 l 543 814 l 407 981 l 271 814 l 68 949 l 407 1356 l 746 949 z "},"_":{"ha":949,"x_min":68,"x_max":882,"o":"m 882 271 l 882 -68 l 68 -68 l 68 271 l 882 271 z "},"`":{"ha":543,"x_min":68,"x_max":475,"o":"m 68 1356 l 339 1356 l 475 1017 l 203 1017 l 68 1356 z "},"a":{"ha":678,"x_min":0,"x_max":678,"o":"m 0 -68 l 203 1424 l 475 1424 l 678 -68 l 407 -68 l 339 543 l 271 -68 l 0 -68 z "},"b":{"ha":814,"x_min":68,"x_max":746,"o":"m 407 543 l 339 543 l 339 203 l 407 203 q 475 271 475 203 l 475 475 q 407 543 475 543 m 407 814 q 475 882 475 814 l 475 1085 q 407 1153 475 1153 l 339 1153 l 339 814 l 407 814 m 475 1424 q 746 1153 746 1424 l 746 882 q 610 678 746 734 q 746 475 746 622 l 746 203 q 475 -68 746 -68 l 68 -68 l 68 1424 l 475 1424 z "},"c":{"ha":678,"x_min":68,"x_max":610,"o":"m 610 1424 l 610 1153 l 407 1153 q 339 1085 339 1153 l 339 271 q 407 203 339 203 l 610 203 l 610 -68 l 339 -68 q 68 203 68 -68 l 68 1153 q 339 1424 68 1424 l 610 1424 z "},"d":{"ha":814,"x_min":68,"x_max":746,"o":"m 339 1153 l 339 203 l 407 203 q 475 271 475 203 l 475 1085 q 407 1153 475 1153 l 339 1153 m 68 -68 l 68 1424 l 475 1424 q 746 1153 746 1424 l 746 203 q 475 -68 746 -68 l 68 -68 z "},"e":{"ha":678,"x_min":68,"x_max":610,"o":"m 610 1424 l 610 1153 l 339 1153 l 339 814 l 610 814 l 610 543 l 339 543 l 339 203 l 610 203 l 610 -68 l 68 -68 l 68 1424 l 610 1424 z "},"f":{"ha":678,"x_min":68,"x_max":610,"o":"m 610 1424 l 610 1153 l 339 1153 l 339 814 l 610 814 l 610 543 l 339 543 l 339 -68 l 68 -68 l 68 1424 l 610 1424 z "},"g":{"ha":814,"x_min":68,"x_max":746,"o":"m 475 814 l 746 814 l 746 -68 l 339 -68 q 68 203 68 -68 l 68 1153 q 339 1424 68 1424 l 746 1424 l 746 1153 l 407 1153 q 339 1085 339 1153 l 339 271 q 407 203 339 203 l 475 203 l 475 814 z "},"h":{"ha":814,"x_min":68,"x_max":746,"o":"m 339 543 l 339 -68 l 68 -68 l 68 1424 l 339 1424 l 339 814 l 475 814 l 475 1424 l 746 1424 l 746 -68 l 475 -68 l 475 543 l 339 543 z "},"i":{"ha":407,"x_min":68,"x_max":339,"o":"m 339 -68 l 68 -68 l 68 1424 l 339 1424 l 339 -68 z "},"j":{"ha":678,"x_min":68,"x_max":610,"o":"m 271 203 q 339 271 339 203 l 339 1424 l 610 1424 l 610 203 q 339 -68 610 -68 l 68 -68 l 68 203 l 271 203 z "},"k":{"ha":814,"x_min":68,"x_max":746,"o":"m 68 1424 l 339 1424 l 339 949 l 475 1424 l 746 1424 l 543 678 l 746 -68 l 475 -68 l 339 407 l 339 -68 l 68 -68 l 68 1424 z "},"l":{"ha":678,"x_min":68,"x_max":610,"o":"m 68 -68 l 68 1424 l 339 1424 l 339 203 l 610 203 l 610 -68 l 68 -68 z "},"m":{"ha":1153,"x_min":68,"x_max":1085,"o":"m 475 -68 l 339 543 l 339 -68 l 68 -68 l 68 1424 l 339 1424 l 576 319 l 814 1424 l 1085 1424 l 1085 -68 l 814 -68 l 814 543 l 678 -68 l 475 -68 z "},"n":{"ha":814,"x_min":68,"x_max":746,"o":"m 339 543 l 339 -68 l 68 -68 l 68 1424 l 271 1424 l 475 746 l 475 1424 l 746 1424 l 746 -68 l 543 -68 l 339 543 z "},"o":{"ha":814,"x_min":68,"x_max":746,"o":"m 407 1153 q 339 1085 339 1153 l 339 271 q 407 203 339 203 q 475 271 475 203 l 475 1085 q 407 1153 475 1153 m 339 -68 q 68 203 68 -68 l 68 1153 q 339 1424 68 1424 l 475 1424 q 746 1153 746 1424 l 746 203 q 475 -68 746 -68 l 339 -68 z "},"p":{"ha":814,"x_min":68,"x_max":746,"o":"m 339 1153 l 339 543 l 407 543 q 475 610 475 543 l 475 1085 q 407 1153 475 1153 l 339 1153 m 339 271 l 339 -68 l 68 -68 l 68 1424 l 475 1424 q 746 1153 746 1424 l 746 543 q 475 271 746 271 l 339 271 z "},"q":{"ha":814,"x_min":68,"x_max":746,"o":"m 339 1085 l 339 271 q 407 203 339 203 q 475 271 475 203 l 475 1085 q 407 1153 475 1153 q 339 1085 339 1153 m 420 -68 l 339 -68 q 68 203 68 -68 l 68 1153 q 339 1424 68 1424 l 475 1424 q 746 1153 746 1424 l 746 203 q 664 -13 746 54 l 746 -203 l 475 -203 l 420 -68 z "},"r":{"ha":814,"x_min":68,"x_max":746,"o":"m 339 1153 l 339 543 l 407 543 q 475 610 475 543 l 475 1085 q 407 1153 475 1153 l 339 1153 m 339 271 l 339 -68 l 68 -68 l 68 1424 l 475 1424 q 746 1153 746 1424 l 746 543 q 593 288 746 339 l 746 -68 l 475 -68 l 339 271 z "},"s":{"ha":814,"x_min":68,"x_max":746,"o":"m 339 1424 l 678 1424 l 678 1153 l 407 1153 q 339 1085 339 1153 l 339 882 q 407 814 339 814 l 475 814 q 746 543 746 814 l 746 203 q 475 -68 746 -68 l 136 -68 l 136 203 l 407 203 q 475 271 475 203 l 475 475 q 407 543 475 543 l 339 543 q 68 814 68 543 l 68 1153 q 339 1424 68 1424 z "},"t":{"ha":814,"x_min":68,"x_max":746,"o":"m 746 1424 l 746 1153 l 543 1153 l 543 -68 l 271 -68 l 271 1153 l 68 1153 l 68 1424 l 746 1424 z "},"u":{"ha":814,"x_min":68,"x_max":746,"o":"m 475 1424 l 746 1424 l 746 203 q 475 -68 746 -68 l 339 -68 q 68 203 68 -68 l 68 1424 l 339 1424 l 339 271 q 407 203 339 203 q 475 271 475 203 l 475 1424 z "},"v":{"ha":678,"x_min":0,"x_max":678,"o":"m 0 1424 l 271 1424 l 339 746 l 407 1424 l 678 1424 l 475 -68 l 203 -68 l 0 1424 z "},"w":{"ha":1153,"x_min":0,"x_max":1153,"o":"m 576 543 l 475 -68 l 203 -68 l 0 1424 l 271 1424 l 339 746 l 475 1424 l 678 1424 l 814 746 l 882 1424 l 1153 1424 l 949 -68 l 678 -68 l 576 543 z "},"x":{"ha":678,"x_min":0,"x_max":678,"o":"m 203 678 l 0 1424 l 271 1424 l 339 1175 l 407 1424 l 678 1424 l 475 678 l 678 -68 l 407 -68 l 339 181 l 271 -68 l 0 -68 l 203 678 z "},"y":{"ha":678,"x_min":0,"x_max":678,"o":"m 203 678 l 0 1424 l 271 1424 l 339 1175 l 407 1424 l 678 1424 l 475 678 l 475 -68 l 203 -68 l 203 678 z "},"z":{"ha":814,"x_min":68,"x_max":746,"o":"m 746 1424 l 413 203 l 746 203 l 746 -68 l 68 -68 l 401 1153 l 68 1153 l 68 1424 l 746 1424 z "},"{":{"ha":678,"x_min":68,"x_max":610,"o":"m 136 814 l 136 1153 q 407 1424 136 1424 l 610 1424 l 610 1153 l 475 1153 q 407 1085 407 1153 l 407 271 q 475 203 407 203 l 610 203 l 610 -68 l 407 -68 q 136 203 136 -68 l 136 543 l 68 543 l 68 814 l 136 814 z "},"|":{"ha":407,"x_min":68,"x_max":339,"o":"m 339 1356 l 339 -68 l 68 -68 l 68 1356 l 339 1356 z "},"}":{"ha":678,"x_min":68,"x_max":610,"o":"m 543 814 l 610 814 l 610 543 l 543 543 l 543 203 q 271 -68 543 -68 l 68 -68 l 68 203 l 203 203 q 271 271 271 203 l 271 1085 q 203 1153 271 1153 l 68 1153 l 68 1424 l 271 1424 q 543 1153 543 1424 l 543 814 z "},"~":{"ha":610,"x_min":68,"x_max":543,"o":"m 543 814 l 543 475 q 416 509 475 509 q 305 475 356 509 q 195 441 254 441 q 68 475 136 441 l 68 814 q 195 780 136 780 q 305 814 254 780 q 416 848 356 848 q 543 814 475 848 z "},"¡":{"ha":475,"x_min":104,"x_max":444,"o":"m 136 949 l 407 949 l 407 -136 l 136 -136 l 136 949 m 274 1017 q 154 1067 203 1017 q 104 1187 104 1116 q 154 1307 104 1257 q 274 1356 203 1356 q 394 1307 345 1356 q 444 1187 444 1257 q 394 1067 444 1116 q 274 1017 345 1017 z "},"¢":{"ha":678,"x_min":0,"x_max":678,"o":"m 81 95 q 68 203 68 142 l 68 814 q 339 1085 68 1085 l 576 1085 l 610 1153 l 678 1153 l 610 1017 l 610 814 l 509 814 l 339 475 l 339 271 q 407 203 339 203 l 610 203 l 610 -68 l 339 -68 q 115 25 180 -68 l 68 -68 l 0 -68 l 81 95 m 441 814 l 407 814 q 339 746 339 814 l 339 610 l 441 814 z "},"£":{"ha":882,"x_min":68,"x_max":814,"o":"m 407 407 l 407 203 l 814 203 l 814 -68 l 136 -68 l 136 407 l 68 407 l 68 678 l 136 678 l 136 1153 q 407 1424 136 1424 l 543 1424 q 814 1153 814 1424 l 814 814 l 543 814 l 543 1085 q 475 1153 543 1153 q 407 1085 407 1153 l 407 678 l 543 678 l 543 407 l 407 407 z "},"¥":{"ha":678,"x_min":0,"x_max":678,"o":"m 203 678 l 0 1424 l 271 1424 l 339 1175 l 407 1424 l 678 1424 l 475 678 l 610 678 l 610 543 l 475 543 l 475 475 l 610 475 l 610 339 l 475 339 l 475 -68 l 203 -68 l 203 339 l 68 339 l 68 475 l 203 475 l 203 543 l 68 543 l 68 678 l 203 678 z "},"´":{"ha":543,"x_min":68,"x_max":475,"o":"m 339 1017 l 68 1017 l 203 1356 l 475 1356 l 339 1017 z "},"¿":{"ha":814,"x_min":68,"x_max":746,"o":"m 407 543 q 339 475 339 543 l 339 271 q 407 203 339 203 q 475 271 475 203 l 475 339 l 746 339 l 746 203 q 475 -68 746 -68 l 339 -68 q 68 203 68 -68 l 68 543 q 271 809 68 777 l 271 1017 l 543 1017 l 543 543 l 407 543 m 289 1135 q 264 1159 289 1135 q 239 1255 239 1184 q 289 1375 239 1325 q 409 1424 338 1424 q 529 1375 479 1424 q 578 1255 578 1325 q 529 1135 578 1184 q 409 1085 479 1085 q 289 1135 338 1085 z "},"À":{"ha":678,"x_min":0,"x_max":678,"o":"m 0 -68 l 203 1424 l 475 1424 l 678 -68 l 407 -68 l 339 543 l 271 -68 l 0 -68 m 271 1492 l 136 1695 l 339 1695 l 407 1492 l 271 1492 z "},"Á":{"ha":678,"x_min":0,"x_max":678,"o":"m 0 -68 l 203 1424 l 475 1424 l 678 -68 l 407 -68 l 339 543 l 271 -68 l 0 -68 m 407 1492 l 271 1492 l 339 1695 l 543 1695 l 407 1492 z "},"Â":{"ha":678,"x_min":0,"x_max":678,"o":"m 0 -68 l 203 1424 l 475 1424 l 678 -68 l 407 -68 l 339 543 l 271 -68 l 0 -68 m 339 1560 l 271 1492 l 102 1492 l 339 1729 l 576 1492 l 407 1492 l 339 1560 z "},"Ã":{"ha":678,"x_min":0,"x_max":678,"o":"m 0 -68 l 203 1424 l 475 1424 l 678 -68 l 407 -68 l 339 543 l 271 -68 l 0 -68 m 576 1690 l 576 1487 q 450 1520 509 1520 q 339 1487 390 1520 q 229 1453 288 1453 q 102 1487 170 1453 l 102 1690 q 229 1656 170 1656 q 339 1690 288 1656 q 450 1724 390 1724 q 576 1690 509 1724 z "},"Ä":{"ha":678,"x_min":0,"x_max":678,"o":"m 0 -68 l 203 1424 l 475 1424 l 678 -68 l 407 -68 l 339 543 l 271 -68 l 0 -68 m 170 1492 q 74 1532 113 1492 q 34 1628 34 1571 q 74 1724 34 1684 q 170 1763 113 1763 q 266 1724 226 1763 q 305 1628 305 1684 q 266 1532 305 1571 q 170 1492 226 1492 m 509 1492 q 413 1532 452 1492 q 373 1628 373 1571 q 413 1724 373 1684 q 509 1763 452 1763 q 605 1724 565 1763 q 644 1628 644 1684 q 605 1532 644 1571 q 509 1492 565 1492 z "},"Å":{"ha":678,"x_min":0,"x_max":678,"o":"m 339 1492 q 387 1512 367 1492 q 407 1560 407 1532 q 387 1608 407 1588 q 339 1628 367 1628 q 291 1608 311 1628 q 271 1560 271 1588 q 291 1512 271 1532 q 339 1492 311 1492 m 477 1410 l 678 -68 l 407 -68 l 339 543 l 271 -68 l 0 -68 l 201 1410 l 195 1416 q 136 1560 136 1476 q 195 1704 136 1644 q 339 1763 255 1763 q 483 1704 423 1763 q 543 1560 543 1644 q 483 1416 543 1476 l 477 1410 z "},"Æ":{"ha":1221,"x_min":0,"x_max":1153,"o":"m 407 -68 l 339 543 l 271 -68 l 0 -68 l 203 1424 l 475 1424 l 610 429 l 610 1424 l 1153 1424 l 1153 1153 l 882 1153 l 882 814 l 1153 814 l 1153 543 l 882 543 l 882 203 l 1153 203 l 1153 -68 l 407 -68 z "},"Ç":{"ha":678,"x_min":68,"x_max":610,"o":"m 407 -136 l 407 -68 l 339 -68 q 68 203 68 -68 l 68 1153 q 339 1424 68 1424 l 610 1424 l 610 1153 l 407 1153 q 339 1085 339 1153 l 339 271 q 407 203 339 203 l 610 203 l 610 -68 l 475 -68 l 475 -136 q 407 -203 475 -203 l 339 -203 l 339 -136 l 407 -136 z "},"È":{"ha":678,"x_min":68,"x_max":610,"o":"m 610 1424 l 610 1153 l 339 1153 l 339 814 l 610 814 l 610 543 l 339 543 l 339 203 l 610 203 l 610 -68 l 68 -68 l 68 1424 l 610 1424 m 271 1492 l 136 1695 l 339 1695 l 407 1492 l 271 1492 z "},"É":{"ha":678,"x_min":68,"x_max":610,"o":"m 610 1424 l 610 1153 l 339 1153 l 339 814 l 610 814 l 610 543 l 339 543 l 339 203 l 610 203 l 610 -68 l 68 -68 l 68 1424 l 610 1424 m 407 1492 l 271 1492 l 339 1695 l 543 1695 l 407 1492 z "},"Ê":{"ha":678,"x_min":68,"x_max":610,"o":"m 610 1424 l 610 1153 l 339 1153 l 339 814 l 610 814 l 610 543 l 339 543 l 339 203 l 610 203 l 610 -68 l 68 -68 l 68 1424 l 610 1424 m 339 1560 l 271 1492 l 102 1492 l 339 1729 l 576 1492 l 407 1492 l 339 1560 z "},"Ë":{"ha":678,"x_min":34,"x_max":644,"o":"m 610 1424 l 610 1153 l 339 1153 l 339 814 l 610 814 l 610 543 l 339 543 l 339 203 l 610 203 l 610 -68 l 68 -68 l 68 1424 l 610 1424 m 170 1492 q 74 1532 113 1492 q 34 1628 34 1571 q 74 1724 34 1684 q 170 1763 113 1763 q 266 1724 226 1763 q 305 1628 305 1684 q 266 1532 305 1571 q 170 1492 226 1492 m 509 1492 q 413 1532 452 1492 q 373 1628 373 1571 q 413 1724 373 1684 q 509 1763 452 1763 q 605 1724 565 1763 q 644 1628 644 1684 q 605 1532 644 1571 q 509 1492 565 1492 z "},"Ì":{"ha":407,"x_min":0,"x_max":339,"o":"m 339 -68 l 68 -68 l 68 1424 l 339 1424 l 339 -68 m 136 1492 l 0 1695 l 203 1695 l 271 1492 l 136 1492 z "},"Í":{"ha":407,"x_min":68,"x_max":407,"o":"m 339 -68 l 68 -68 l 68 1424 l 339 1424 l 339 -68 m 271 1492 l 136 1492 l 203 1695 l 407 1695 l 271 1492 z "},"Î":{"ha":407,"x_min":-34,"x_max":441,"o":"m 339 -68 l 68 -68 l 68 1424 l 339 1424 l 339 -68 m 203 1560 l 136 1492 l -34 1492 l 203 1729 l 441 1492 l 271 1492 l 203 1560 z "},"Ï":{"ha":407,"x_min":-102,"x_max":509,"o":"m 339 -68 l 68 -68 l 68 1424 l 339 1424 l 339 -68 m 34 1492 q -62 1532 -22 1492 q -102 1628 -102 1571 q -62 1724 -102 1684 q 34 1763 -22 1763 q 130 1724 90 1763 q 170 1628 170 1684 q 130 1532 170 1571 q 34 1492 90 1492 m 373 1492 q 277 1532 317 1492 q 237 1628 237 1571 q 277 1724 237 1684 q 373 1763 317 1763 q 469 1724 429 1763 q 509 1628 509 1684 q 469 1532 509 1571 q 373 1492 429 1492 z "},"Ð":{"ha":882,"x_min":68,"x_max":814,"o":"m 136 814 l 136 1424 l 543 1424 q 814 1153 814 1424 l 814 203 q 543 -68 814 -68 l 136 -68 l 136 543 l 68 543 l 68 814 l 136 814 m 407 814 l 475 814 l 475 543 l 407 543 l 407 203 l 475 203 q 543 271 543 203 l 543 1085 q 475 1153 543 1153 l 407 1153 l 407 814 z "},"Ñ":{"ha":814,"x_min":68,"x_max":746,"o":"m 339 543 l 339 -68 l 68 -68 l 68 1424 l 271 1424 l 475 746 l 475 1424 l 746 1424 l 746 -68 l 543 -68 l 339 543 m 644 1690 l 644 1487 q 517 1520 576 1520 q 407 1487 458 1520 q 297 1453 356 1453 q 170 1487 237 1453 l 170 1690 q 297 1656 237 1656 q 407 1690 356 1656 q 517 1724 458 1724 q 644 1690 576 1724 z "},"Ò":{"ha":814,"x_min":68,"x_max":746,"o":"m 407 1153 q 339 1085 339 1153 l 339 271 q 407 203 339 203 q 475 271 475 203 l 475 1085 q 407 1153 475 1153 m 339 -68 q 68 203 68 -68 l 68 1153 q 339 1424 68 1424 l 475 1424 q 746 1153 746 1424 l 746 203 q 475 -68 746 -68 l 339 -68 m 339 1492 l 203 1695 l 407 1695 l 475 1492 l 339 1492 z "},"Ó":{"ha":814,"x_min":68,"x_max":746,"o":"m 407 1153 q 339 1085 339 1153 l 339 271 q 407 203 339 203 q 475 271 475 203 l 475 1085 q 407 1153 475 1153 m 339 -68 q 68 203 68 -68 l 68 1153 q 339 1424 68 1424 l 475 1424 q 746 1153 746 1424 l 746 203 q 475 -68 746 -68 l 339 -68 m 475 1492 l 339 1492 l 407 1695 l 610 1695 l 475 1492 z "},"Ô":{"ha":814,"x_min":68,"x_max":746,"o":"m 407 1153 q 339 1085 339 1153 l 339 271 q 407 203 339 203 q 475 271 475 203 l 475 1085 q 407 1153 475 1153 m 339 -68 q 68 203 68 -68 l 68 1153 q 339 1424 68 1424 l 475 1424 q 746 1153 746 1424 l 746 203 q 475 -68 746 -68 l 339 -68 m 407 1560 l 339 1492 l 170 1492 l 407 1729 l 644 1492 l 475 1492 l 407 1560 z "},"Õ":{"ha":814,"x_min":68,"x_max":746,"o":"m 407 1153 q 339 1085 339 1153 l 339 271 q 407 203 339 203 q 475 271 475 203 l 475 1085 q 407 1153 475 1153 m 339 -68 q 68 203 68 -68 l 68 1153 q 339 1424 68 1424 l 475 1424 q 746 1153 746 1424 l 746 203 q 475 -68 746 -68 l 339 -68 m 644 1690 l 644 1487 q 517 1520 576 1520 q 407 1487 458 1520 q 297 1453 356 1453 q 170 1487 237 1453 l 170 1690 q 297 1656 237 1656 q 407 1690 356 1656 q 517 1724 458 1724 q 644 1690 576 1724 z "},"Ö":{"ha":814,"x_min":68,"x_max":746,"o":"m 407 1153 q 339 1085 339 1153 l 339 271 q 407 203 339 203 q 475 271 475 203 l 475 1085 q 407 1153 475 1153 m 339 -68 q 68 203 68 -68 l 68 1153 q 339 1424 68 1424 l 475 1424 q 746 1153 746 1424 l 746 203 q 475 -68 746 -68 l 339 -68 m 237 1492 q 141 1532 181 1492 q 102 1628 102 1571 q 141 1724 102 1684 q 237 1763 181 1763 q 333 1724 294 1763 q 373 1628 373 1684 q 333 1532 373 1571 q 237 1492 294 1492 m 576 1492 q 480 1532 520 1492 q 441 1628 441 1571 q 480 1724 441 1684 q 576 1763 520 1763 q 672 1724 633 1763 q 712 1628 712 1684 q 672 1532 712 1571 q 576 1492 633 1492 z "},"×":{"ha":814,"x_min":71,"x_max":743,"o":"m 599 680 l 743 536 l 553 343 l 408 486 l 265 342 l 72 532 l 215 677 l 71 820 l 261 1013 l 406 870 l 549 1015 l 742 824 l 599 680 z "},"Ø":{"ha":814,"x_min":68,"x_max":746,"o":"m 109 33 q 68 203 68 98 l 68 1153 q 339 1424 68 1424 l 475 1424 q 658 1374 591 1424 l 678 1424 l 746 1424 l 705 1323 q 746 1153 746 1259 l 746 203 q 475 -68 746 -68 l 339 -68 q 156 -18 222 -68 l 136 -68 l 68 -68 l 109 33 m 475 761 l 339 429 l 339 271 q 407 203 339 203 q 475 271 475 203 l 475 761 m 339 595 l 475 927 l 475 1085 q 407 1153 475 1153 q 339 1085 339 1153 l 339 595 z "},"Ù":{"ha":814,"x_min":68,"x_max":746,"o":"m 475 1424 l 746 1424 l 746 203 q 475 -68 746 -68 l 339 -68 q 68 203 68 -68 l 68 1424 l 339 1424 l 339 271 q 407 203 339 203 q 475 271 475 203 l 475 1424 m 339 1492 l 203 1695 l 407 1695 l 475 1492 l 339 1492 z "},"Ú":{"ha":814,"x_min":68,"x_max":746,"o":"m 475 1424 l 746 1424 l 746 203 q 475 -68 746 -68 l 339 -68 q 68 203 68 -68 l 68 1424 l 339 1424 l 339 271 q 407 203 339 203 q 475 271 475 203 l 475 1424 m 475 1492 l 339 1492 l 407 1695 l 610 1695 l 475 1492 z "},"Û":{"ha":814,"x_min":68,"x_max":746,"o":"m 475 1424 l 746 1424 l 746 203 q 475 -68 746 -68 l 339 -68 q 68 203 68 -68 l 68 1424 l 339 1424 l 339 271 q 407 203 339 203 q 475 271 475 203 l 475 1424 m 407 1560 l 339 1492 l 170 1492 l 407 1729 l 644 1492 l 475 1492 l 407 1560 z "},"Ü":{"ha":814,"x_min":68,"x_max":746,"o":"m 475 1424 l 746 1424 l 746 203 q 475 -68 746 -68 l 339 -68 q 68 203 68 -68 l 68 1424 l 339 1424 l 339 271 q 407 203 339 203 q 475 271 475 203 l 475 1424 m 237 1492 q 141 1532 181 1492 q 102 1628 102 1571 q 141 1724 102 1684 q 237 1763 181 1763 q 333 1724 294 1763 q 373 1628 373 1684 q 333 1532 373 1571 q 237 1492 294 1492 m 576 1492 q 480 1532 520 1492 q 441 1628 441 1571 q 480 1724 441 1684 q 576 1763 520 1763 q 672 1724 633 1763 q 712 1628 712 1684 q 672 1532 712 1571 q 576 1492 633 1492 z "},"Ý":{"ha":678,"x_min":0,"x_max":678,"o":"m 203 678 l 0 1424 l 271 1424 l 339 1175 l 407 1424 l 678 1424 l 475 678 l 475 -68 l 203 -68 l 203 678 m 407 1492 l 271 1492 l 339 1695 l 543 1695 l 407 1492 z "},"Þ":{"ha":814,"x_min":68,"x_max":746,"o":"m 339 1289 l 475 1289 q 746 1017 746 1289 l 746 407 q 475 136 746 136 l 339 136 l 339 -203 l 68 -203 l 68 1424 l 339 1424 l 339 1289 m 339 407 l 407 407 q 475 475 475 407 l 475 949 q 407 1017 475 1017 l 339 1017 l 339 407 z "},"ß":{"ha":814,"x_min":68,"x_max":746,"o":"m 339 -68 l 68 -68 l 68 1424 l 475 1424 q 746 1153 746 1424 l 746 882 q 610 678 746 734 q 746 475 746 622 l 746 68 q 475 -203 746 -203 l 407 -203 l 407 68 q 475 136 475 68 l 475 475 q 407 543 475 543 l 407 814 q 475 882 475 814 l 475 1085 q 407 1153 475 1153 l 339 1153 l 339 -68 z "},"à":{"ha":678,"x_min":0,"x_max":678,"o":"m 0 -68 l 203 1424 l 475 1424 l 678 -68 l 407 -68 l 339 543 l 271 -68 l 0 -68 m 271 1492 l 136 1695 l 339 1695 l 407 1492 l 271 1492 z "},"á":{"ha":678,"x_min":0,"x_max":678,"o":"m 0 -68 l 203 1424 l 475 1424 l 678 -68 l 407 -68 l 339 543 l 271 -68 l 0 -68 m 407 1492 l 271 1492 l 339 1695 l 543 1695 l 407 1492 z "},"â":{"ha":678,"x_min":0,"x_max":678,"o":"m 0 -68 l 203 1424 l 475 1424 l 678 -68 l 407 -68 l 339 543 l 271 -68 l 0 -68 m 339 1560 l 271 1492 l 102 1492 l 339 1729 l 576 1492 l 407 1492 l 339 1560 z "},"ã":{"ha":678,"x_min":0,"x_max":678,"o":"m 0 -68 l 203 1424 l 475 1424 l 678 -68 l 407 -68 l 339 543 l 271 -68 l 0 -68 m 576 1690 l 576 1487 q 450 1520 509 1520 q 339 1487 390 1520 q 229 1453 288 1453 q 102 1487 170 1453 l 102 1690 q 229 1656 170 1656 q 339 1690 288 1656 q 450 1724 390 1724 q 576 1690 509 1724 z "},"ä":{"ha":678,"x_min":0,"x_max":678,"o":"m 0 -68 l 203 1424 l 475 1424 l 678 -68 l 407 -68 l 339 543 l 271 -68 l 0 -68 m 170 1492 q 74 1532 113 1492 q 34 1628 34 1571 q 74 1724 34 1684 q 170 1763 113 1763 q 266 1724 226 1763 q 305 1628 305 1684 q 266 1532 305 1571 q 170 1492 226 1492 m 509 1492 q 413 1532 452 1492 q 373 1628 373 1571 q 413 1724 373 1684 q 509 1763 452 1763 q 605 1724 565 1763 q 644 1628 644 1684 q 605 1532 644 1571 q 509 1492 565 1492 z "},"å":{"ha":678,"x_min":0,"x_max":678,"o":"m 339 1492 q 387 1512 367 1492 q 407 1560 407 1532 q 387 1608 407 1588 q 339 1628 367 1628 q 291 1608 311 1628 q 271 1560 271 1588 q 291 1512 271 1532 q 339 1492 311 1492 m 477 1410 l 678 -68 l 407 -68 l 339 543 l 271 -68 l 0 -68 l 201 1410 l 195 1416 q 136 1560 136 1476 q 195 1704 136 1644 q 339 1763 255 1763 q 483 1704 423 1763 q 543 1560 543 1644 q 483 1416 543 1476 l 477 1410 z "},"æ":{"ha":1221,"x_min":0,"x_max":1153,"o":"m 407 -68 l 339 543 l 271 -68 l 0 -68 l 203 1424 l 475 1424 l 610 429 l 610 1424 l 1153 1424 l 1153 1153 l 882 1153 l 882 814 l 1153 814 l 1153 543 l 882 543 l 882 203 l 1153 203 l 1153 -68 l 407 -68 z "},"ç":{"ha":678,"x_min":68,"x_max":610,"o":"m 407 -136 l 407 -68 l 339 -68 q 68 203 68 -68 l 68 1153 q 339 1424 68 1424 l 610 1424 l 610 1153 l 407 1153 q 339 1085 339 1153 l 339 271 q 407 203 339 203 l 610 203 l 610 -68 l 475 -68 l 475 -136 q 407 -203 475 -203 l 339 -203 l 339 -136 l 407 -136 z "},"è":{"ha":678,"x_min":68,"x_max":610,"o":"m 610 1424 l 610 1153 l 339 1153 l 339 814 l 610 814 l 610 543 l 339 543 l 339 203 l 610 203 l 610 -68 l 68 -68 l 68 1424 l 610 1424 m 271 1492 l 136 1695 l 339 1695 l 407 1492 l 271 1492 z "},"é":{"ha":678,"x_min":68,"x_max":610,"o":"m 610 1424 l 610 1153 l 339 1153 l 339 814 l 610 814 l 610 543 l 339 543 l 339 203 l 610 203 l 610 -68 l 68 -68 l 68 1424 l 610 1424 m 407 1492 l 271 1492 l 339 1695 l 543 1695 l 407 1492 z "},"ê":{"ha":678,"x_min":68,"x_max":610,"o":"m 610 1424 l 610 1153 l 339 1153 l 339 814 l 610 814 l 610 543 l 339 543 l 339 203 l 610 203 l 610 -68 l 68 -68 l 68 1424 l 610 1424 m 339 1560 l 271 1492 l 102 1492 l 339 1729 l 576 1492 l 407 1492 l 339 1560 z "},"ë":{"ha":678,"x_min":34,"x_max":644,"o":"m 610 1424 l 610 1153 l 339 1153 l 339 814 l 610 814 l 610 543 l 339 543 l 339 203 l 610 203 l 610 -68 l 68 -68 l 68 1424 l 610 1424 m 170 1492 q 74 1532 113 1492 q 34 1628 34 1571 q 74 1724 34 1684 q 170 1763 113 1763 q 266 1724 226 1763 q 305 1628 305 1684 q 266 1532 305 1571 q 170 1492 226 1492 m 509 1492 q 413 1532 452 1492 q 373 1628 373 1571 q 413 1724 373 1684 q 509 1763 452 1763 q 605 1724 565 1763 q 644 1628 644 1684 q 605 1532 644 1571 q 509 1492 565 1492 z "},"ì":{"ha":576,"x_min":68,"x_max":509,"o":"m 509 1356 l 509 -68 l 170 -68 l 170 1356 l 509 1356 m 271 1424 l 68 1695 l 339 1695 l 475 1424 l 271 1424 z "},"í":{"ha":576,"x_min":68,"x_max":509,"o":"m 407 1356 l 407 -68 l 68 -68 l 68 1356 l 407 1356 m 305 1424 l 102 1424 l 237 1695 l 509 1695 l 305 1424 z "},"î":{"ha":610,"x_min":68,"x_max":543,"o":"m 475 1356 l 475 -68 l 136 -68 l 136 1356 l 475 1356 m 305 1526 l 237 1424 l 68 1424 l 305 1729 l 543 1424 l 373 1424 l 305 1526 z "},"ï":{"ha":746,"x_min":68,"x_max":678,"o":"m 543 1356 l 543 -68 l 203 -68 l 203 1356 l 543 1356 m 203 1424 q 107 1464 147 1424 q 68 1560 68 1503 q 107 1656 68 1616 q 203 1695 147 1695 q 299 1656 260 1695 q 339 1560 339 1616 q 299 1464 339 1503 q 203 1424 260 1424 m 543 1424 q 447 1464 486 1424 q 407 1560 407 1503 q 447 1656 407 1616 q 543 1695 486 1695 q 638 1656 599 1695 q 678 1560 678 1616 q 638 1464 678 1503 q 543 1424 599 1424 z "},"ð":{"ha":814,"x_min":68,"x_max":814,"o":"m 339 746 l 339 271 q 407 203 339 203 q 475 271 475 203 l 475 746 q 407 814 475 814 q 339 746 339 814 m 746 203 q 475 -68 746 -68 l 339 -68 q 68 203 68 -68 l 68 814 q 339 1085 68 1085 l 475 1085 l 475 1221 l 407 1221 l 407 1356 l 475 1356 l 475 1424 l 746 1424 l 746 1356 l 814 1356 l 814 1221 l 746 1221 l 746 203 z "},"ñ":{"ha":814,"x_min":68,"x_max":746,"o":"m 339 543 l 339 -68 l 68 -68 l 68 1424 l 271 1424 l 475 746 l 475 1424 l 746 1424 l 746 -68 l 543 -68 l 339 543 m 644 1690 l 644 1487 q 517 1520 576 1520 q 407 1487 458 1520 q 297 1453 356 1453 q 170 1487 237 1453 l 170 1690 q 297 1656 237 1656 q 407 1690 356 1656 q 517 1724 458 1724 q 644 1690 576 1724 z "},"ò":{"ha":814,"x_min":68,"x_max":746,"o":"m 407 1153 q 339 1085 339 1153 l 339 271 q 407 203 339 203 q 475 271 475 203 l 475 1085 q 407 1153 475 1153 m 339 -68 q 68 203 68 -68 l 68 1153 q 339 1424 68 1424 l 475 1424 q 746 1153 746 1424 l 746 203 q 475 -68 746 -68 l 339 -68 m 339 1492 l 203 1695 l 407 1695 l 475 1492 l 339 1492 z "},"ó":{"ha":814,"x_min":68,"x_max":746,"o":"m 407 1153 q 339 1085 339 1153 l 339 271 q 407 203 339 203 q 475 271 475 203 l 475 1085 q 407 1153 475 1153 m 339 -68 q 68 203 68 -68 l 68 1153 q 339 1424 68 1424 l 475 1424 q 746 1153 746 1424 l 746 203 q 475 -68 746 -68 l 339 -68 m 475 1492 l 339 1492 l 407 1695 l 610 1695 l 475 1492 z "},"ô":{"ha":814,"x_min":68,"x_max":746,"o":"m 407 1153 q 339 1085 339 1153 l 339 271 q 407 203 339 203 q 475 271 475 203 l 475 1085 q 407 1153 475 1153 m 339 -68 q 68 203 68 -68 l 68 1153 q 339 1424 68 1424 l 475 1424 q 746 1153 746 1424 l 746 203 q 475 -68 746 -68 l 339 -68 m 407 1560 l 339 1492 l 170 1492 l 407 1729 l 644 1492 l 475 1492 l 407 1560 z "},"õ":{"ha":814,"x_min":68,"x_max":746,"o":"m 407 1153 q 339 1085 339 1153 l 339 271 q 407 203 339 203 q 475 271 475 203 l 475 1085 q 407 1153 475 1153 m 339 -68 q 68 203 68 -68 l 68 1153 q 339 1424 68 1424 l 475 1424 q 746 1153 746 1424 l 746 203 q 475 -68 746 -68 l 339 -68 m 644 1690 l 644 1487 q 517 1520 576 1520 q 407 1487 458 1520 q 297 1453 356 1453 q 170 1487 237 1453 l 170 1690 q 297 1656 237 1656 q 407 1690 356 1656 q 517 1724 458 1724 q 644 1690 576 1724 z "},"ö":{"ha":814,"x_min":68,"x_max":746,"o":"m 407 1153 q 339 1085 339 1153 l 339 271 q 407 203 339 203 q 475 271 475 203 l 475 1085 q 407 1153 475 1153 m 339 -68 q 68 203 68 -68 l 68 1153 q 339 1424 68 1424 l 475 1424 q 746 1153 746 1424 l 746 203 q 475 -68 746 -68 l 339 -68 m 237 1492 q 141 1532 181 1492 q 102 1628 102 1571 q 141 1724 102 1684 q 237 1763 181 1763 q 333 1724 294 1763 q 373 1628 373 1684 q 333 1532 373 1571 q 237 1492 294 1492 m 576 1492 q 480 1532 520 1492 q 441 1628 441 1571 q 480 1724 441 1684 q 576 1763 520 1763 q 672 1724 633 1763 q 712 1628 712 1684 q 672 1532 712 1571 q 576 1492 633 1492 z "},"÷":{"ha":814,"x_min":68,"x_max":746,"o":"m 746 814 l 746 543 l 68 543 l 68 814 l 746 814 m 407 407 q 527 357 477 407 q 576 237 576 308 q 527 117 576 167 q 407 68 477 68 q 287 117 336 68 q 237 237 237 167 q 287 357 237 308 q 407 407 336 407 m 407 1289 q 527 1239 477 1289 q 576 1119 576 1190 q 527 999 576 1048 q 407 949 477 949 q 287 999 336 949 q 237 1119 237 1048 q 287 1239 237 1190 q 407 1289 336 1289 z "},"ø":{"ha":814,"x_min":68,"x_max":746,"o":"m 109 33 q 68 203 68 98 l 68 1153 q 339 1424 68 1424 l 475 1424 q 658 1374 591 1424 l 678 1424 l 746 1424 l 705 1323 q 746 1153 746 1259 l 746 203 q 475 -68 746 -68 l 339 -68 q 156 -18 222 -68 l 136 -68 l 68 -68 l 109 33 m 475 761 l 339 429 l 339 271 q 407 203 339 203 q 475 271 475 203 l 475 761 m 339 595 l 475 927 l 475 1085 q 407 1153 475 1153 q 339 1085 339 1153 l 339 595 z "},"ù":{"ha":814,"x_min":68,"x_max":746,"o":"m 475 1424 l 746 1424 l 746 203 q 475 -68 746 -68 l 339 -68 q 68 203 68 -68 l 68 1424 l 339 1424 l 339 271 q 407 203 339 203 q 475 271 475 203 l 475 1424 m 339 1492 l 203 1695 l 407 1695 l 475 1492 l 339 1492 z "},"ú":{"ha":814,"x_min":68,"x_max":746,"o":"m 475 1424 l 746 1424 l 746 203 q 475 -68 746 -68 l 339 -68 q 68 203 68 -68 l 68 1424 l 339 1424 l 339 271 q 407 203 339 203 q 475 271 475 203 l 475 1424 m 475 1492 l 339 1492 l 407 1695 l 610 1695 l 475 1492 z "},"û":{"ha":814,"x_min":68,"x_max":746,"o":"m 475 1424 l 746 1424 l 746 203 q 475 -68 746 -68 l 339 -68 q 68 203 68 -68 l 68 1424 l 339 1424 l 339 271 q 407 203 339 203 q 475 271 475 203 l 475 1424 m 407 1560 l 339 1492 l 170 1492 l 407 1729 l 644 1492 l 475 1492 l 407 1560 z "},"ü":{"ha":814,"x_min":68,"x_max":746,"o":"m 475 1424 l 746 1424 l 746 203 q 475 -68 746 -68 l 339 -68 q 68 203 68 -68 l 68 1424 l 339 1424 l 339 271 q 407 203 339 203 q 475 271 475 203 l 475 1424 m 237 1492 q 141 1532 181 1492 q 102 1628 102 1571 q 141 1724 102 1684 q 237 1763 181 1763 q 333 1724 294 1763 q 373 1628 373 1684 q 333 1532 373 1571 q 237 1492 294 1492 m 576 1492 q 480 1532 520 1492 q 441 1628 441 1571 q 480 1724 441 1684 q 576 1763 520 1763 q 672 1724 633 1763 q 712 1628 712 1684 q 672 1532 712 1571 q 576 1492 633 1492 z "},"ý":{"ha":678,"x_min":0,"x_max":678,"o":"m 203 678 l 0 1424 l 271 1424 l 339 1175 l 407 1424 l 678 1424 l 475 678 l 475 -68 l 203 -68 l 203 678 m 407 1492 l 271 1492 l 339 1695 l 543 1695 l 407 1492 z "},"þ":{"ha":814,"x_min":68,"x_max":746,"o":"m 339 1289 l 475 1289 q 746 1017 746 1289 l 746 407 q 475 136 746 136 l 339 136 l 339 -203 l 68 -203 l 68 1424 l 339 1424 l 339 1289 m 339 407 l 407 407 q 475 475 475 407 l 475 949 q 407 1017 475 1017 l 339 1017 l 339 407 z "},"ÿ":{"ha":678,"x_min":0,"x_max":678,"o":"m 203 678 l 0 1424 l 271 1424 l 339 1175 l 407 1424 l 678 1424 l 475 678 l 475 -68 l 203 -68 l 203 678 m 170 1492 q 74 1532 113 1492 q 34 1628 34 1571 q 74 1724 34 1684 q 170 1763 113 1763 q 266 1724 226 1763 q 305 1628 305 1684 q 266 1532 305 1571 q 170 1492 226 1492 m 509 1492 q 413 1532 452 1492 q 373 1628 373 1571 q 413 1724 373 1684 q 509 1763 452 1763 q 605 1724 565 1763 q 644 1628 644 1684 q 605 1532 644 1571 q 509 1492 565 1492 z "},"Œ":{"ha":1289,"x_min":68,"x_max":1221,"o":"m 339 1085 l 339 271 q 407 203 339 203 q 475 271 475 203 l 475 1085 q 407 1153 475 1153 q 339 1085 339 1153 m 678 0 q 475 -68 610 -68 l 339 -68 q 68 203 68 -68 l 68 1153 q 339 1424 68 1424 l 475 1424 q 678 1356 610 1424 l 678 1424 l 1221 1424 l 1221 1153 l 949 1153 l 949 814 l 1221 814 l 1221 543 l 949 543 l 949 203 l 1221 203 l 1221 -68 l 678 -68 l 678 0 z "},"œ":{"ha":1289,"x_min":68,"x_max":1221,"o":"m 339 1085 l 339 271 q 407 203 339 203 q 475 271 475 203 l 475 1085 q 407 1153 475 1153 q 339 1085 339 1153 m 678 0 q 475 -68 610 -68 l 339 -68 q 68 203 68 -68 l 68 1153 q 339 1424 68 1424 l 475 1424 q 678 1356 610 1424 l 678 1424 l 1221 1424 l 1221 1153 l 949 1153 l 949 814 l 1221 814 l 1221 543 l 949 543 l 949 203 l 1221 203 l 1221 -68 l 678 -68 l 678 0 z "},"ˆ":{"ha":814,"x_min":68,"x_max":746,"o":"m 746 949 l 543 814 l 407 981 l 271 814 l 68 949 l 407 1356 l 746 949 z "},"˜":{"ha":610,"x_min":68,"x_max":543,"o":"m 543 1322 l 543 983 q 416 1017 475 1017 q 305 983 356 1017 q 195 949 254 949 q 68 983 136 949 l 68 1322 q 195 1289 136 1289 q 305 1322 254 1289 q 416 1356 356 1356 q 543 1322 475 1356 z "},"˝":{"ha":913,"x_min":68,"x_max":845,"o":"m 339 1017 l 68 1017 l 203 1356 l 475 1356 l 339 1017 m 709 1017 l 438 1017 l 574 1356 l 845 1356 l 709 1017 z "},"̀":{"ha":543,"x_min":136,"x_max":407,"o":"m 271 1492 l 136 1695 l 339 1695 l 407 1492 l 271 1492 z "},"́":{"ha":543,"x_min":136,"x_max":407,"o":"m 271 1492 l 136 1492 l 203 1695 l 407 1695 l 271 1492 z "},"̂":{"ha":610,"x_min":68,"x_max":543,"o":"m 305 1560 l 237 1492 l 68 1492 l 305 1729 l 543 1492 l 373 1492 l 305 1560 z "},"̃":{"ha":610,"x_min":68,"x_max":543,"o":"m 543 1690 l 543 1487 q 416 1520 475 1520 q 305 1487 356 1520 q 195 1453 254 1453 q 68 1487 136 1453 l 68 1690 q 195 1656 136 1656 q 305 1690 254 1656 q 416 1724 356 1724 q 543 1690 475 1724 z "},"̈":{"ha":746,"x_min":68,"x_max":678,"o":"m 203 1492 q 107 1532 147 1492 q 68 1628 68 1571 q 107 1724 68 1684 q 203 1763 147 1763 q 299 1724 260 1763 q 339 1628 339 1684 q 299 1532 339 1571 q 203 1492 260 1492 m 543 1492 q 447 1532 486 1492 q 407 1628 407 1571 q 447 1724 407 1684 q 543 1763 486 1763 q 638 1724 599 1763 q 678 1628 678 1684 q 638 1532 678 1571 q 543 1492 599 1492 z "},"̊":{"ha":543,"x_min":68,"x_max":475,"o":"m 271 1356 q 127 1416 187 1356 q 68 1560 68 1476 q 127 1704 68 1644 q 271 1763 187 1763 q 415 1704 355 1763 q 475 1560 475 1644 q 415 1416 475 1476 q 271 1356 355 1356 m 271 1492 q 319 1512 299 1492 q 339 1560 339 1532 q 319 1608 339 1588 q 271 1628 299 1628 q 223 1608 243 1628 q 203 1560 203 1588 q 223 1512 203 1532 q 271 1492 243 1492 z "},"–":{"ha":814,"x_min":68,"x_max":746,"o":"m 746 814 l 746 543 l 68 543 l 68 814 l 746 814 z "},"—":{"ha":814,"x_min":68,"x_max":746,"o":"m 746 814 l 746 543 l 68 543 l 68 814 l 746 814 z "},"‘":{"ha":407,"x_min":68,"x_max":339,"o":"m 339 1356 l 339 949 l 68 949 l 68 1356 l 339 1356 z "},"’":{"ha":407,"x_min":68,"x_max":339,"o":"m 339 1356 l 339 949 l 68 949 l 68 1356 l 339 1356 z "},"‚":{"ha":407,"x_min":68,"x_max":339,"o":"m 339 136 l 339 -271 l 68 -271 l 68 136 l 339 136 z "},"“":{"ha":746,"x_min":68,"x_max":678,"o":"m 339 1356 l 339 949 l 68 949 l 68 1356 l 339 1356 m 678 1356 l 678 949 l 407 949 l 407 1356 l 678 1356 z "},"”":{"ha":746,"x_min":68,"x_max":678,"o":"m 339 1356 l 339 949 l 68 949 l 68 1356 l 339 1356 m 678 1356 l 678 949 l 407 949 l 407 1356 l 678 1356 z "},"„":{"ha":746,"x_min":68,"x_max":678,"o":"m 339 136 l 339 -271 l 68 -271 l 68 136 l 339 136 m 678 136 l 678 -271 l 407 -271 l 407 136 l 678 136 z "},"•":{"ha":475,"x_min":68,"x_max":407,"o":"m 237 678 q 357 629 308 678 q 407 509 407 579 q 357 389 407 438 q 237 339 308 339 q 117 389 167 339 q 68 509 68 438 q 117 629 68 579 q 237 678 167 678 z "},"…":{"ha":1288,"x_min":68,"x_max":1220,"o":"m 237 271 q 357 222 308 271 q 407 102 407 172 q 357 -18 407 31 q 237 -68 308 -68 q 117 -18 167 -68 q 68 102 68 31 q 117 222 68 172 q 237 271 167 271 m 646 271 q 766 222 716 271 q 815 102 815 172 q 766 -18 815 31 q 646 -68 716 -68 q 526 -18 575 -68 q 476 102 476 31 q 526 222 476 172 q 646 271 575 271 m 1050 271 q 1171 222 1121 271 q 1220 102 1220 172 q 1171 -18 1220 31 q 1050 -68 1121 -68 q 930 -18 980 -68 q 881 102 881 31 q 930 222 881 172 q 1050 271 980 271 z "},"‹":{"ha":814,"x_min":68,"x_max":746,"o":"m 68 543 l 746 1017 l 746 746 l 475 543 l 746 339 l 746 68 l 68 543 z "},"›":{"ha":814,"x_min":68,"x_max":746,"o":"m 746 543 l 68 68 l 68 339 l 339 543 l 68 746 l 68 1017 l 746 543 z "},"€":{"ha":882,"x_min":68,"x_max":814,"o":"m 136 814 l 136 1153 q 407 1424 136 1424 l 543 1424 q 814 1153 814 1424 l 814 814 l 543 814 l 543 1085 q 475 1153 543 1153 q 407 1085 407 1153 l 407 814 l 475 814 l 475 678 l 407 678 l 407 610 l 475 610 l 475 475 l 407 475 l 407 271 q 475 203 407 203 q 543 271 543 203 l 543 543 l 814 543 l 814 203 q 543 -68 814 -68 l 407 -68 q 136 203 136 -68 l 136 475 l 68 475 l 68 610 l 136 610 l 136 678 l 68 678 l 68 814 l 136 814 z "},"™":{"ha":864,"x_min":68,"x_max":796,"o":"m 273 853 l 273 610 l 176 610 l 176 853 l 68 853 l 68 950 l 383 950 l 383 853 l 273 853 m 796 950 l 796 610 l 699 610 l 699 772 l 650 610 l 566 610 l 505 772 l 505 610 l 408 610 l 408 950 l 529 950 l 602 756 l 675 950 l 796 950 z "},"−":{"ha":814,"x_min":68,"x_max":746,"o":"m 746 814 l 746 543 l 68 543 l 68 814 l 746 814 z "}}}
